# xmcd CD database file
#
# Track frame offsets:
#	151
#	13769
#	29184
#	43831
#	69445
#	83394
#	101388
#	112319
#	131245
#	142042
#	153151
#	166345
#	176267
#	194998
#	211514
#	228235
#	248362
#
# Disc length: 3490 seconds
#
# Revision: 0
# Processed by: cddbd v1.5.2PL0 Copyright (c) Steve Scherf et al.
# Submitted via: CDex 1.51
#
DISCID=e50da011
DTITLE=Lauren Shub - Framework
DYEAR=2005
DGENRE=Jazz
TTITLE0=Softly, As in a Morning Sunrise
TTITLE1=Watch What Happends
TTITLE2=Autumn Leaves
TTITLE3=Triste
TTITLE4=Caravan
TTITLE5=Someone To Light Up My Life
TTITLE6=Ain't No Sunshine
TTITLE7=I Concentrate On You
TTITLE8=Nuages
TTITLE9=Bianna
TTITLE10=My Funny Valentine
TTITLE11=St. Thomas
TTITLE12=Dindi
TTITLE13=The Baltimore Byrd Breakdown
TTITLE14=Moondance
TTITLE15=Violao Quebrada
TTITLE16=You'd Be So Nice To Come Home To
EXTD=YEAR: 2005
EXTT0=
EXTT1=
EXTT2=
EXTT3=
EXTT4=
EXTT5=
EXTT6=
EXTT7=
EXTT8=
EXTT9=
EXTT10=
EXTT11=
EXTT12=
EXTT13=
EXTT14=
EXTT15=
EXTT16=
PLAYORDER=
